<svg width="483" height="189" viewBox="0 0 483 189" fill="none" xmlns="http://www.w3.org/2000/svg">
<path d="M13.3547 71H26.7947L40.7148 29.24H41.2907L55.1147 71H68.5548L81.6108 3.8H68.7467L60.1068 49.496H59.8188L44.3627 3.8H37.8348L22.3787 49.496H22.0907L13.4507 3.8H0.298747L13.3547 71ZM117.51 53.432C115.014 56.984 111.558 61.4 105.03 61.4C98.2143 61.4 94.1823 57.176 93.7983 49.304H127.974V45.56C127.974 29.048 117.894 18.68 104.646 18.68C91.3983 18.68 81.1263 29.048 81.1263 45.56C81.1263 62.072 91.2063 72.44 105.222 72.44C115.782 72.44 122.022 67.256 126.246 61.112L117.51 53.432ZM93.7983 39.992C94.2783 34.328 98.3103 29.624 104.646 29.624C111.366 29.624 115.302 33.56 115.878 39.992H93.7983ZM134.178 71H147.138V0.919998H134.178V71ZM187.303 50.456C186.343 56.792 183.175 61.208 177.223 61.208C170.215 61.208 165.703 56.024 165.703 45.56C165.703 35 170.407 29.912 177.223 29.912C183.079 29.912 185.959 33.944 187.015 39.224L198.631 37.016C196.903 25.976 188.743 18.68 177.223 18.68C164.359 18.68 153.415 28.184 153.415 45.56C153.415 62.936 163.783 72.44 177.127 72.44C188.743 72.44 196.807 65.72 199.111 53.528L187.303 50.456ZM225.32 61.208C218.312 61.208 213.8 55.928 213.8 45.56C213.8 35.192 218.504 29.912 225.32 29.912C232.136 29.912 236.84 35.384 236.84 45.56C236.84 55.736 232.328 61.208 225.32 61.208ZM225.32 72.44C238.664 72.44 249.128 62.936 249.128 45.56C249.128 28.184 237.992 18.68 225.32 18.68C212.648 18.68 201.512 28.184 201.512 45.56C201.512 62.936 211.976 72.44 225.32 72.44ZM255.408 71H267.504V38.072C267.504 33.656 270.288 30.2 276.24 30.2C282.192 30.2 285.072 34.136 285.072 38.744V71H296.496V38.072C296.496 33.656 299.375 30.2 305.232 30.2C311.664 30.2 314.064 34.136 314.064 38.744V71H325.488V36.152C325.488 25.88 318.096 18.68 305.712 18.68C299.856 18.68 294.96 21.656 292.464 25.4H292.272C289.872 21.56 284.784 18.68 279.312 18.68C273.84 18.68 269.232 21.56 267.024 25.016H266.832V20.12H255.408V71ZM367.654 53.432C365.158 56.984 361.702 61.4 355.174 61.4C348.358 61.4 344.326 57.176 343.942 49.304H378.118V45.56C378.118 29.048 368.038 18.68 354.79 18.68C341.542 18.68 331.27 29.048 331.27 45.56C331.27 62.072 341.35 72.44 355.366 72.44C365.926 72.44 372.166 67.256 376.39 61.112L367.654 53.432ZM343.942 39.992C344.422 34.328 348.454 29.624 354.79 29.624C361.51 29.624 365.446 33.56 366.022 39.992H343.942ZM407.073 52.856C407.073 64.952 410.817 71 425.025 71H430.305V59H426.177C420.417 59 419.361 56.792 419.361 51.704V30.68H432.033V20.12H419.169V7.64H407.361V20.12H399.201V30.68H407.073V52.856ZM458.214 61.208C451.206 61.208 446.694 55.928 446.694 45.56C446.694 35.192 451.398 29.912 458.214 29.912C465.03 29.912 469.734 35.384 469.734 45.56C469.734 55.736 465.222 61.208 458.214 61.208ZM458.214 72.44C471.558 72.44 482.022 62.936 482.022 45.56C482.022 28.184 470.886 18.68 458.214 18.68C445.542 18.68 434.406 28.184 434.406 45.56C434.406 62.936 444.87 72.44 458.214 72.44ZM37.2981 144.536C39.3141 160.664 49.2981 168.44 64.2741 168.44C79.5381 168.44 88.9461 159.512 88.9461 147.8C88.9461 138.008 84.7221 132.632 69.5541 127.448C54.6741 122.36 52.4661 121.4 52.4661 117.368C52.4661 113.336 55.4421 110.36 62.3541 110.36C69.9381 110.36 73.1061 114.68 74.7381 119.864L87.3141 116.696C84.9141 103.832 74.1621 98.36 62.3541 98.36C47.7621 98.36 39.6981 107.576 39.6981 117.464C39.6981 126.2 44.4021 132.344 58.8981 136.856C73.9701 141.56 76.2741 143.384 76.2741 148.664C76.2741 153.944 71.2821 156.44 64.2741 156.44C55.3461 156.44 52.4661 151.448 50.9301 141.56L37.2981 144.536ZM127.217 149.432C124.721 152.984 121.265 157.4 114.737 157.4C107.921 157.4 103.889 153.176 103.505 145.304H137.681V141.56C137.681 125.048 127.601 114.68 114.353 114.68C101.105 114.68 90.8331 125.048 90.8331 141.56C90.8331 158.072 100.913 168.44 114.929 168.44C125.489 168.44 131.729 163.256 135.953 157.112L127.217 149.432ZM103.505 135.992C103.985 130.328 108.017 125.624 114.353 125.624C121.073 125.624 125.009 129.56 125.585 135.992H103.505ZM143.884 167H155.98V134.072C155.98 129.656 158.764 126.2 164.716 126.2C170.668 126.2 173.548 130.136 173.548 134.744V167H184.972V134.072C184.972 129.656 187.852 126.2 193.708 126.2C200.14 126.2 202.54 130.136 202.54 134.744V167H213.964V132.152C213.964 121.88 206.572 114.68 194.188 114.68C188.332 114.68 183.436 117.656 180.94 121.4H180.748C178.348 117.56 173.26 114.68 167.788 114.68C162.316 114.68 157.708 117.56 155.5 121.016H155.308V116.12H143.884V167ZM235.587 136.28C235.587 130.712 239.715 125.912 246.531 125.912C253.539 125.912 259.011 131 259.011 141.56C259.011 152.024 253.539 157.208 246.531 157.208C239.715 157.208 235.587 152.408 235.587 146.744V136.28ZM223.107 188.6H235.587V162.104H235.779C235.779 162.104 239.331 168.44 249.123 168.44C260.931 168.44 271.491 158.936 271.491 141.56C271.491 124.184 260.163 114.68 248.931 114.68C238.947 114.68 235.203 121.016 235.203 121.016H235.011V116.12H223.107V188.6ZM277.767 167H290.727V96.92H277.767V167ZM300.364 167H312.844V116.12H300.364V167ZM300.364 108.728H312.844V96.92H300.364V108.728ZM352.927 146.456C351.967 152.792 348.799 157.208 342.847 157.208C335.839 157.208 331.327 152.024 331.327 141.56C331.327 131 336.031 125.912 342.847 125.912C348.703 125.912 351.583 129.944 352.639 135.224L364.255 133.016C362.527 121.976 354.367 114.68 342.847 114.68C329.983 114.68 319.039 124.184 319.039 141.56C319.039 158.936 329.407 168.44 342.751 168.44C354.367 168.44 362.431 161.72 364.735 149.528L352.927 146.456ZM403.521 149.432C401.025 152.984 397.569 157.4 391.041 157.4C384.225 157.4 380.193 153.176 379.809 145.304H413.985V141.56C413.985 125.048 403.905 114.68 390.657 114.68C377.409 114.68 367.137 125.048 367.137 141.56C367.137 158.072 377.217 168.44 391.233 168.44C401.793 168.44 408.033 163.256 412.257 157.112L403.521 149.432ZM379.809 135.992C380.289 130.328 384.321 125.624 390.657 125.624C397.377 125.624 401.313 129.56 401.889 135.992H379.809ZM422.684 144.824H435.644V99.8H422.684V144.824ZM422.108 167H436.412V153.368H422.108V167Z" fill="white"/>
</svg>
